<svg width="773" height="687" viewBox="0 0 773 687" fill="none" xmlns="http://www.w3.org/2000/svg" xmlns:xlink="http://www.w3.org/1999/xlink">

<g clip-path="url(#clip3_154_52)">
<circle cx="644" cy="454" r="89.5" fill="black" stroke="white" stroke-width="45"/>
<path d="M617.399 433.384C619.871 433.624 621.755 434.392 623.051 435.688C624.347 436.96 624.995 438.592 624.995 440.584C624.995 442.024 624.635 443.332 623.915 444.508C623.195 445.66 622.115 446.584 620.675 447.28C619.259 447.952 617.519 448.288 615.455 448.288C613.655 448.288 611.927 448.024 610.271 447.496C608.615 446.944 607.259 446.188 606.203 445.228L607.859 442.384C608.723 443.2 609.827 443.86 611.171 444.364C612.515 444.844 613.943 445.084 615.455 445.084C617.327 445.084 618.779 444.688 619.811 443.896C620.867 443.104 621.395 442.012 621.395 440.62C621.395 439.228 620.879 438.148 619.847 437.38C618.815 436.612 617.255 436.228 615.167 436.228H613.151V433.708L619.487 425.932H607.355V422.8H623.987V425.248L617.399 433.384ZM638.649 448.288C636.657 448.288 634.881 447.784 633.321 446.776C631.785 445.744 630.573 444.256 629.685 442.312C628.797 440.368 628.353 438.064 628.353 435.4C628.353 432.736 628.797 430.432 629.685 428.488C630.573 426.544 631.785 425.068 633.321 424.06C634.881 423.028 636.657 422.512 638.649 422.512C640.617 422.512 642.369 423.028 643.905 424.06C645.465 425.068 646.689 426.544 647.577 428.488C648.465 430.432 648.909 432.736 648.909 435.4C648.909 438.064 648.465 440.368 647.577 442.312C646.689 444.256 645.465 445.744 643.905 446.776C642.369 447.784 640.617 448.288 638.649 448.288ZM638.649 445.084C640.665 445.084 642.273 444.256 643.473 442.6C644.697 440.944 645.309 438.544 645.309 435.4C645.309 432.256 644.697 429.856 643.473 428.2C642.273 426.544 640.665 425.716 638.649 425.716C636.609 425.716 634.977 426.544 633.753 428.2C632.553 429.856 631.953 432.256 631.953 435.4C631.953 438.544 632.553 440.944 633.753 442.6C634.977 444.256 636.609 445.084 638.649 445.084ZM657.837 436.336C656.085 436.336 654.669 435.7 653.589 434.428C652.509 433.156 651.969 431.5 651.969 429.46C651.969 427.42 652.509 425.764 653.589 424.492C654.669 423.22 656.085 422.584 657.837 422.584C659.589 422.584 660.993 423.22 662.049 424.492C663.129 425.74 663.669 427.396 663.669 429.46C663.669 431.524 663.129 433.192 662.049 434.464C660.993 435.712 659.589 436.336 657.837 436.336ZM673.029 422.8H675.801L658.593 448H655.821L673.029 422.8ZM657.837 434.284C658.941 434.284 659.805 433.864 660.429 433.024C661.053 432.16 661.365 430.972 661.365 429.46C661.365 427.948 661.053 426.772 660.429 425.932C659.805 425.068 658.941 424.636 657.837 424.636C656.757 424.636 655.893 425.068 655.245 425.932C654.621 426.796 654.309 427.972 654.309 429.46C654.309 430.948 654.621 432.124 655.245 432.988C655.893 433.852 656.757 434.284 657.837 434.284ZM673.785 448.216C672.033 448.216 670.617 447.592 669.537 446.344C668.481 445.072 667.953 443.404 667.953 441.34C667.953 439.276 668.481 437.62 669.537 436.372C670.617 435.1 672.033 434.464 673.785 434.464C675.537 434.464 676.953 435.1 678.033 436.372C679.113 437.644 679.653 439.3 679.653 441.34C679.653 443.38 679.113 445.036 678.033 446.308C676.953 447.58 675.537 448.216 673.785 448.216ZM673.785 446.164C674.865 446.164 675.717 445.732 676.341 444.868C676.989 444.004 677.313 442.828 677.313 441.34C677.313 439.852 676.989 438.676 676.341 437.812C675.717 436.948 674.865 436.516 673.785 436.516C672.681 436.516 671.817 436.948 671.193 437.812C670.569 438.652 670.257 439.828 670.257 441.34C670.257 442.852 670.569 444.04 671.193 444.904C671.817 445.744 672.681 446.164 673.785 446.164ZM620.687 492.288C618.143 492.288 615.851 491.736 613.811 490.632C611.771 489.504 610.163 487.956 608.987 485.988C607.835 484.02 607.259 481.824 607.259 479.4C607.259 476.976 607.835 474.78 608.987 472.812C610.163 470.844 611.771 469.308 613.811 468.204C615.851 467.076 618.143 466.512 620.687 466.512C623.207 466.512 625.487 467.076 627.527 468.204C629.567 469.308 631.163 470.844 632.315 472.812C633.467 474.756 634.043 476.952 634.043 479.4C634.043 481.848 633.467 484.056 632.315 486.024C631.163 487.968 629.567 489.504 627.527 490.632C625.487 491.736 623.207 492.288 620.687 492.288ZM620.687 489.084C622.535 489.084 624.191 488.664 625.655 487.824C627.143 486.984 628.307 485.832 629.147 484.368C630.011 482.88 630.443 481.224 630.443 479.4C630.443 477.576 630.011 475.932 629.147 474.468C628.307 472.98 627.143 471.816 625.655 470.976C624.191 470.136 622.535 469.716 620.687 469.716C618.839 469.716 617.159 470.136 615.647 470.976C614.159 471.816 612.983 472.98 612.119 474.468C611.279 475.932 610.859 477.576 610.859 479.4C610.859 481.224 611.279 482.88 612.119 484.368C612.983 485.832 614.159 486.984 615.647 487.824C617.159 488.664 618.839 489.084 620.687 489.084ZM643.146 469.932V478.716H655.782V481.812H643.146V492H639.546V466.8H657.33V469.932H643.146ZM665.997 469.932V478.716H678.633V481.812H665.997V492H662.397V466.8H680.181V469.932H665.997Z" fill="white"/>
<path d="M646.887 365.644V370H645.105V365.608L640.101 357.4H642.027L646.059 364.042L650.109 357.4H651.891L646.887 365.644Z" fill="black"/>
<path d="M662.889 371.898C661.959 371.713 661.165 371.341 660.505 370.781C659.846 370.222 659.375 369.541 659.095 368.739C658.828 367.927 658.786 367.062 658.968 366.144C659.151 365.226 659.52 364.449 660.074 363.813C660.643 363.168 661.338 362.719 662.159 362.466C662.983 362.202 663.859 362.162 664.789 362.347C665.719 362.532 666.508 362.903 667.155 363.46C667.817 364.008 668.282 364.687 668.548 365.499C668.829 366.301 668.878 367.161 668.696 368.079C668.513 368.997 668.137 369.779 667.569 370.424C667.014 371.06 666.325 371.511 665.501 371.775C664.69 372.042 663.819 372.083 662.889 371.898ZM663.184 370.415C663.784 370.534 664.347 370.505 664.871 370.328C665.41 370.142 665.864 369.828 666.233 369.388C666.604 368.936 666.855 368.386 666.983 367.739C667.112 367.091 667.09 366.494 666.918 365.945C666.748 365.385 666.448 364.922 666.02 364.555C665.603 364.191 665.094 363.949 664.494 363.83C663.894 363.71 663.325 363.738 662.789 363.913C662.264 364.09 661.811 364.403 661.427 364.853C661.058 365.294 660.81 365.838 660.681 366.485C660.552 367.132 660.573 367.736 660.743 368.296C660.927 368.846 661.226 369.31 661.641 369.686C662.069 370.052 662.584 370.295 663.184 370.415Z" fill="black"/>
<path d="M687.327 369.799L683.676 378.612L682.163 377.986L682.714 376.655C682.204 376.977 681.63 377.155 680.992 377.189C680.37 377.217 679.749 377.103 679.128 376.845C677.953 376.359 677.16 375.654 676.75 374.731C676.345 373.796 676.404 372.697 676.928 371.433L679.028 366.361L680.625 367.023L678.6 371.912C678.246 372.765 678.183 373.499 678.409 374.112C678.64 374.715 679.138 375.174 679.903 375.491C680.746 375.84 681.517 375.861 682.216 375.553C682.915 375.245 683.457 374.625 683.843 373.694L685.73 369.137L687.327 369.799Z" fill="black"/>
<path d="M707.238 395.833C706.551 395.146 706.084 394.382 705.838 393.542C705.601 392.71 705.588 391.883 705.8 391.06C706.021 390.228 706.462 389.482 707.124 388.82C707.786 388.158 708.528 387.721 709.351 387.509C710.183 387.288 711.01 387.301 711.833 387.547C712.673 387.793 713.437 388.26 714.124 388.947C714.735 389.558 715.155 390.224 715.384 390.945C715.622 391.675 715.639 392.405 715.435 393.135L713.908 392.804C714.018 392.269 713.997 391.764 713.844 391.289C713.691 390.814 713.424 390.385 713.042 390.004C712.601 389.562 712.105 389.261 711.553 389.1C711.01 388.947 710.454 388.951 709.886 389.113C709.334 389.274 708.825 389.588 708.358 390.054C707.883 390.53 707.561 391.047 707.391 391.607C707.238 392.167 707.238 392.719 707.391 393.262C707.552 393.813 707.854 394.31 708.295 394.751C708.677 395.133 709.105 395.4 709.58 395.553C710.056 395.706 710.56 395.727 711.095 395.617L711.439 397.131C710.709 397.335 709.975 397.322 709.237 397.093C708.515 396.864 707.849 396.444 707.238 395.833Z" fill="black"/>
<path d="M725.394 402.722C726.128 403.82 726.418 404.838 726.266 405.776C726.121 406.725 725.514 407.556 724.447 408.27L719.657 411.47L718.747 410.108L719.795 409.408C719.266 409.415 718.751 409.261 718.252 408.945C717.769 408.633 717.324 408.172 716.917 407.563C716.324 406.675 716.062 405.819 716.131 404.993C716.207 404.178 716.594 403.537 717.292 403.07C717.991 402.603 718.719 402.484 719.478 402.713C720.247 402.935 721.002 403.6 721.742 404.708L723.262 406.983L723.546 406.793C724.165 406.379 724.519 405.883 724.608 405.304C724.697 404.725 724.509 404.086 724.042 403.387C723.729 402.919 723.342 402.513 722.883 402.171C722.433 401.822 721.975 401.579 721.509 401.443L722.186 400.124C722.789 400.314 723.365 400.636 723.915 401.091C724.474 401.54 724.968 402.083 725.394 402.722ZM718.185 407.063C718.552 407.612 718.988 408.006 719.494 408.245C720.01 408.477 720.553 408.533 721.122 408.413L722.229 407.673L720.749 405.458C719.936 404.24 719.12 403.905 718.302 404.452C717.903 404.719 717.692 405.083 717.669 405.546C717.646 406.008 717.818 406.514 718.185 407.063Z" fill="black"/>
<path d="M734.836 420.593C735.299 421.713 735.34 422.735 734.957 423.66C734.589 424.591 733.779 425.317 732.526 425.836L727.454 427.937L726.793 426.34L731.682 424.315C732.536 423.961 733.094 423.49 733.356 422.901C733.619 422.311 733.591 421.634 733.275 420.869C732.916 420.004 732.379 419.428 731.662 419.141C730.957 418.848 730.133 418.897 729.191 419.288L724.651 421.168L723.989 419.572L732.803 415.921L733.437 417.451L732.106 418.002C732.694 418.135 733.223 418.423 733.691 418.865C734.165 419.318 734.546 419.894 734.836 420.593Z" fill="black"/>
<path d="M741.54 461.05H733.296C731.628 461.05 730.398 460.636 729.606 459.808C728.802 458.98 728.4 457.744 728.4 456.1C728.4 455.2 728.526 454.342 728.778 453.526C729.018 452.71 729.366 452.05 729.822 451.546L731.154 452.374C730.77 452.818 730.47 453.364 730.254 454.012C730.026 454.672 729.912 455.35 729.912 456.046C729.912 457.162 730.176 457.984 730.704 458.512C731.232 459.052 732.036 459.322 733.116 459.322H733.872C733.38 458.914 733.008 458.41 732.756 457.81C732.516 457.222 732.396 456.58 732.396 455.884C732.396 454.972 732.588 454.144 732.972 453.4C733.368 452.668 733.914 452.092 734.61 451.672C735.318 451.252 736.122 451.042 737.022 451.042C737.922 451.042 738.72 451.252 739.416 451.672C740.124 452.092 740.67 452.668 741.054 453.4C741.438 454.144 741.63 454.972 741.63 455.884C741.63 456.604 741.498 457.27 741.234 457.882C740.97 458.506 740.58 459.016 740.064 459.412H741.54V461.05ZM733.908 456.082C733.908 456.706 734.04 457.264 734.304 457.756C734.568 458.26 734.934 458.65 735.402 458.926C735.882 459.214 736.422 459.358 737.022 459.358C737.946 459.358 738.69 459.052 739.254 458.44C739.83 457.828 740.118 457.042 740.118 456.082C740.118 455.11 739.83 454.318 739.254 453.706C738.69 453.094 737.946 452.788 737.022 452.788C736.422 452.788 735.882 452.926 735.402 453.202C734.934 453.49 734.568 453.88 734.304 454.372C734.04 454.876 733.908 455.446 733.908 456.082Z" fill="black"/>
<path d="M733.927 478.938C733.797 478.912 733.629 478.866 733.422 478.801L734.932 471.209C734.087 471.152 733.351 471.378 732.723 471.89C732.104 472.415 731.704 473.137 731.521 474.055C731.299 475.173 731.496 476.148 732.114 476.981L730.833 477.699C730.423 477.177 730.152 476.572 730.019 475.885C729.884 475.21 729.894 474.484 730.049 473.707C730.245 472.718 730.62 471.881 731.172 471.196C731.736 470.513 732.425 470.032 733.239 469.753C734.051 469.487 734.916 469.444 735.834 469.627C736.74 469.807 737.518 470.17 738.168 470.715C738.816 471.272 739.27 471.944 739.53 472.73C739.799 473.53 739.844 474.377 739.666 475.271C739.488 476.166 739.124 476.919 738.574 477.532C738.034 478.158 737.36 478.593 736.553 478.836C735.744 479.091 734.868 479.125 733.927 478.938ZM738.236 474.987C738.398 474.175 738.287 473.443 737.902 472.791C737.516 472.152 736.932 471.705 736.15 471.452L734.956 477.454C735.763 477.517 736.469 477.321 737.073 476.866C737.687 476.425 738.075 475.799 738.236 474.987Z" fill="black"/>
<path d="M724.497 492.671C724.393 492.356 724.358 492.003 724.389 491.614C724.432 491.229 724.529 490.853 724.68 490.488C725.048 489.601 725.571 489.012 726.25 488.722C726.928 488.431 727.711 488.47 728.598 488.837L733.437 490.842L734.057 489.345L735.371 489.889L734.751 491.386L736.68 492.185L736.019 493.781L734.09 492.982L733.043 495.51L731.729 494.966L732.776 492.438L728.003 490.461C727.527 490.264 727.113 490.229 726.761 490.356C726.405 490.494 726.135 490.785 725.952 491.228C725.749 491.716 725.716 492.189 725.851 492.648L724.497 492.671Z" fill="black"/>
<path d="M704.498 519.867C704.524 519.536 704.625 519.196 704.804 518.849C704.99 518.509 705.224 518.199 705.504 517.919C706.183 517.241 706.891 516.897 707.629 516.888C708.367 516.88 709.076 517.215 709.755 517.894L713.459 521.598L714.604 520.452L715.61 521.458L714.464 522.603L715.941 524.08L714.719 525.302L713.242 523.825L711.308 525.76L710.302 524.754L712.237 522.82L708.584 519.167C708.219 518.802 707.85 518.611 707.477 518.594C707.095 518.586 706.734 518.751 706.395 519.09C706.021 519.464 705.809 519.888 705.758 520.363L704.498 519.867Z" fill="black"/>
<path d="M698.172 536.07C697.164 536.744 696.169 536.983 695.187 536.787C694.202 536.609 693.332 535.955 692.579 534.828L689.529 530.263L690.966 529.303L693.906 533.703C694.419 534.472 694.99 534.927 695.619 535.069C696.249 535.212 696.907 535.053 697.596 534.593C698.374 534.073 698.834 533.434 698.977 532.675C699.126 531.926 698.917 531.127 698.35 530.279L695.62 526.193L697.057 525.233L704.477 536.338L703.04 537.298L700.17 533.003C700.124 533.582 699.932 534.136 699.593 534.666C699.244 535.202 698.77 535.67 698.172 536.07Z" fill="black"/>
<path d="M675.857 541.737C675.806 541.615 675.751 541.45 675.69 541.241L682.841 538.279C682.42 537.545 681.822 537.058 681.048 536.82C680.268 536.598 679.445 536.666 678.58 537.024C677.527 537.461 676.826 538.167 676.477 539.142L675.168 538.477C675.375 537.846 675.727 537.284 676.224 536.792C676.711 536.305 677.32 535.91 678.052 535.607C678.983 535.221 679.887 535.067 680.764 535.146C681.645 535.235 682.428 535.541 683.111 536.063C683.784 536.59 684.3 537.285 684.658 538.15C685.011 539.004 685.142 539.852 685.05 540.696C684.947 541.544 684.64 542.294 684.131 542.947C683.616 543.615 682.937 544.124 682.094 544.473C681.252 544.822 680.423 544.938 679.608 544.82C678.787 544.719 678.051 544.4 677.4 543.865C676.739 543.333 676.224 542.624 675.857 541.737ZM681.536 543.126C682.301 542.809 682.848 542.31 683.176 541.628C683.493 540.951 683.54 540.217 683.316 539.427L677.662 541.769C678.058 542.475 678.614 542.953 679.328 543.203C680.035 543.468 680.771 543.442 681.536 543.126Z" fill="black"/>
<path d="M645.989 541.892C646.937 541.892 647.789 542.102 648.545 542.522C649.301 542.942 649.895 543.518 650.327 544.25C650.747 544.994 650.957 545.834 650.957 546.77C650.957 547.706 650.747 548.54 650.327 549.272C649.895 550.016 649.301 550.592 648.545 551C647.789 551.42 646.937 551.63 645.989 551.63C645.041 551.63 644.195 551.42 643.451 551C642.695 550.592 642.107 550.016 641.687 549.272C641.255 548.54 641.039 547.706 641.039 546.77C641.039 545.834 641.255 544.994 641.687 544.25C642.107 543.518 642.695 542.942 643.451 542.522C644.195 542.102 645.041 541.892 645.989 541.892ZM645.989 543.404C645.377 543.404 644.831 543.542 644.351 543.818C643.859 544.106 643.475 544.502 643.199 545.006C642.923 545.522 642.785 546.11 642.785 546.77C642.785 547.43 642.923 548.012 643.199 548.516C643.475 549.032 643.859 549.428 644.351 549.704C644.831 549.98 645.377 550.118 645.989 550.118C646.601 550.118 647.153 549.98 647.645 549.704C648.125 549.428 648.509 549.032 648.797 548.516C649.073 548.012 649.211 547.43 649.211 546.77C649.211 546.11 649.073 545.522 648.797 545.006C648.509 544.502 648.125 544.106 647.645 543.818C647.153 543.542 646.601 543.404 645.989 543.404Z" fill="black"/>
<path d="M624.525 551.518C625.537 551.719 626.152 551.273 626.37 550.178L626.531 549.366L623.812 548.825L624.09 547.431L626.773 547.964L628.357 540.002L630.052 540.34L628.468 548.302L630.057 548.618L629.78 550.012L628.191 549.696L628.026 550.526C627.841 551.456 627.424 552.138 626.775 552.571C626.126 553.005 625.313 553.125 624.336 552.93C623.959 552.855 623.615 552.738 623.305 552.578C622.994 552.419 622.738 552.227 622.538 552.004L623.306 550.817C623.636 551.188 624.042 551.422 624.525 551.518Z" fill="black"/>
<path d="M606.301 545.461C607.254 545.856 607.944 545.538 608.372 544.507L608.688 543.742L606.127 542.681L606.672 541.367L609.199 542.414L612.306 534.914L613.902 535.576L610.796 543.076L612.292 543.696L611.748 545.009L610.252 544.389L609.928 545.171C609.565 546.047 609.023 546.634 608.302 546.933C607.581 547.232 606.76 547.19 605.84 546.809C605.485 546.662 605.171 546.48 604.897 546.263C604.623 546.046 604.41 545.808 604.257 545.55L605.242 544.536C605.493 544.964 605.846 545.273 606.301 545.461Z" fill="black"/>
<path d="M591.357 528.327C591.431 528.217 591.537 528.079 591.677 527.913L598.113 532.213C598.49 531.455 598.562 530.688 598.33 529.912C598.081 529.14 597.568 528.493 596.789 527.973C595.842 527.34 594.865 527.149 593.86 527.401L593.686 525.943C594.326 525.764 594.988 525.745 595.673 525.885C596.349 526.019 597.016 526.306 597.674 526.746C598.513 527.306 599.143 527.973 599.564 528.745C599.98 529.528 600.16 530.348 600.106 531.207C600.042 532.059 599.75 532.874 599.23 533.652C598.716 534.42 598.083 535.001 597.331 535.393C596.568 535.778 595.774 535.94 594.949 535.879C594.107 535.822 593.307 535.54 592.549 535.033C591.79 534.526 591.234 533.902 590.878 533.159C590.506 532.42 590.362 531.631 590.446 530.792C590.52 529.947 590.824 529.125 591.357 528.327ZM593.359 533.821C594.047 534.281 594.766 534.458 595.515 534.352C596.254 534.24 596.89 533.871 597.423 533.246L592.334 529.846C591.968 530.568 591.879 531.295 592.068 532.027C592.24 532.763 592.67 533.361 593.359 533.821Z" fill="black"/>
<path d="M579.672 522.162C579.069 522.341 578.459 522.324 577.839 522.111C577.22 521.899 576.613 521.496 576.019 520.902L577.203 519.719C577.262 519.795 577.351 519.893 577.47 520.011C578.132 520.673 578.853 520.996 579.634 520.979C580.397 520.962 581.144 520.588 581.874 519.859L585.234 516.498L586.456 517.72L579.71 524.466L578.539 523.295L579.672 522.162Z" fill="black"/>
<path d="M554.72 491.089C555.115 492.042 555.828 492.306 556.859 491.878L557.624 491.562L556.563 489.001L557.877 488.456L558.924 490.984L566.424 487.878L567.085 489.474L559.585 492.581L560.205 494.077L558.891 494.622L558.271 493.125L557.49 493.449C556.614 493.811 555.815 493.843 555.094 493.545C554.373 493.246 553.822 492.636 553.44 491.716C553.293 491.361 553.2 491.011 553.16 490.663C553.12 490.316 553.138 489.997 553.212 489.707L554.626 489.686C554.5 490.167 554.531 490.634 554.72 491.089Z" fill="black"/>
<path d="M554.114 474.077C553.514 473.89 553.015 473.537 552.618 473.016C552.221 472.496 551.94 471.823 551.776 471L553.418 470.673C553.425 470.77 553.445 470.9 553.478 471.065C553.661 471.983 554.081 472.652 554.74 473.071C555.384 473.482 556.212 473.586 557.224 473.385L561.885 472.458L562.222 474.152L552.866 476.014L552.542 474.389L554.114 474.077Z" fill="black"/>
<path d="M560.108 455.989C560.108 456.937 559.898 457.789 559.478 458.545C559.058 459.301 558.482 459.895 557.75 460.327C557.006 460.747 556.166 460.957 555.23 460.957C554.294 460.957 553.46 460.747 552.728 460.327C551.984 459.895 551.408 459.301 551 458.545C550.58 457.789 550.37 456.937 550.37 455.989C550.37 455.041 550.58 454.195 551 453.451C551.408 452.695 551.984 452.107 552.728 451.687C553.46 451.255 554.294 451.039 555.23 451.039C556.166 451.039 557.006 451.255 557.75 451.687C558.482 452.107 559.058 452.695 559.478 453.451C559.898 454.195 560.108 455.041 560.108 455.989ZM558.596 455.989C558.596 455.377 558.458 454.831 558.182 454.351C557.894 453.859 557.498 453.475 556.994 453.199C556.478 452.923 555.89 452.785 555.23 452.785C554.57 452.785 553.988 452.923 553.484 453.199C552.968 453.475 552.572 453.859 552.296 454.351C552.02 454.831 551.882 455.377 551.882 455.989C551.882 456.601 552.02 457.153 552.296 457.645C552.572 458.125 552.968 458.509 553.484 458.797C553.988 459.073 554.57 459.211 555.23 459.211C555.89 459.211 556.478 459.073 556.994 458.797C557.498 458.509 557.894 458.125 558.182 457.645C558.458 457.153 558.596 456.601 558.596 455.989Z" fill="black"/>
<path d="M553.286 433.39C553.52 432.213 554.046 431.351 554.864 430.805C555.685 430.246 556.766 430.1 558.108 430.367L563.493 431.438L563.156 433.133L557.965 432.1C557.059 431.92 556.334 431.996 555.791 432.329C555.25 432.649 554.902 433.198 554.748 433.975C554.577 434.834 554.712 435.57 555.152 436.184C555.581 436.795 556.296 437.201 557.297 437.4L562.116 438.358L561.779 440.053L556.589 439.021C555.682 438.84 554.958 438.917 554.414 439.249C553.873 439.57 553.526 440.118 553.371 440.895C553.2 441.754 553.335 442.491 553.776 443.104C554.205 443.716 554.92 444.121 555.92 444.32L560.74 445.279L560.402 446.974L551.046 445.112L551.369 443.488L552.763 443.766C552.349 443.328 552.073 442.809 551.936 442.206C551.787 441.602 551.783 440.946 551.923 440.24C552.068 439.51 552.344 438.892 552.751 438.386C553.157 437.879 553.674 437.529 554.299 437.336C553.828 436.875 553.502 436.302 553.32 435.618C553.14 434.921 553.129 434.179 553.286 433.39Z" fill="black"/>
<path d="M567.642 396.275L578.118 403.275L577.298 404.502L565.286 405.568L573.098 410.788L572.098 412.285L561.622 405.285L562.442 404.058L574.454 402.992L566.642 397.772L567.642 396.275Z" fill="black"/>
<path d="M578.508 388.719L579.73 387.497L586.475 394.242L585.253 395.464L578.508 388.719ZM577.82 386.809C577.583 387.047 577.307 387.17 576.993 387.178C576.688 387.178 576.425 387.068 576.204 386.848C575.983 386.627 575.873 386.364 575.873 386.058C575.873 385.736 575.992 385.456 576.229 385.218C576.467 384.981 576.738 384.862 577.044 384.862C577.349 384.845 577.612 384.947 577.833 385.167C578.062 385.397 578.177 385.672 578.177 385.995C578.177 386.3 578.058 386.572 577.82 386.809Z" fill="black"/>
<path d="M596.335 380.676L595.709 383.302L597.159 385.472L595.722 386.432L588.302 375.327L589.739 374.367L594.499 381.491L596.184 374.65L597.92 373.49L596.773 378.998L603.549 381.202L601.783 382.382L596.335 380.676Z" fill="black"/>
<path d="M616.446 370.263C616.496 370.385 616.552 370.55 616.612 370.759L609.461 373.721C609.883 374.455 610.48 374.942 611.254 375.18C612.035 375.402 612.857 375.334 613.722 374.976C614.775 374.539 615.476 373.833 615.826 372.858L617.134 373.523C616.928 374.154 616.576 374.716 616.078 375.208C615.592 375.695 614.983 376.09 614.251 376.393C613.32 376.779 612.416 376.933 611.539 376.854C610.657 376.765 609.875 376.459 609.191 375.937C608.518 375.41 608.003 374.715 607.645 373.85C607.291 372.996 607.16 372.148 607.253 371.304C607.356 370.456 607.662 369.706 608.171 369.053C608.687 368.385 609.366 367.876 610.208 367.527C611.051 367.178 611.88 367.062 612.694 367.18C613.516 367.281 614.252 367.6 614.902 368.135C615.564 368.667 616.078 369.376 616.446 370.263ZM610.766 368.874C610.001 369.191 609.455 369.69 609.126 370.372C608.809 371.049 608.763 371.783 608.986 372.573L614.64 370.231C614.244 369.525 613.689 369.047 612.975 368.797C612.267 368.532 611.531 368.558 610.766 368.874Z" fill="black"/>
</g>
</svg>
