<svg aria-hidden="true" style="position: absolute; width: 0; height: 0; overflow: hidden;" version="1.1" xmlns="http://www.w3.org/2000/svg" xmlns:xlink="http://www.w3.org/1999/xlink">
<defs>
<symbol id="icon-add" viewBox="0 0 24 24">
<path d="M18.984 12.984h-6v6h-1.969v-6h-6v-1.969h6v-6h1.969v6h6v1.969z"></path>
</symbol>
<symbol id="icon-minus" viewBox="0 0 24 24">
<path d="M5 13h14c0.552 0 1-0.448 1-1s-0.448-1-1-1h-14c-0.552 0-1 0.448-1 1s0.448 1 1 1z"></path>
</symbol>
<symbol id="icon-chevrons-left" viewBox="0 0 24 24">
<path d="M11.707 16.293l-4.293-4.293 4.293-4.293c0.391-0.391 0.391-1.024 0-1.414s-1.024-0.391-1.414 0l-5 5c-0.391 0.391-0.391 1.024 0 1.414l5 5c0.391 0.391 1.024 0.391 1.414 0s0.391-1.024 0-1.414zM18.707 16.293l-4.293-4.293 4.293-4.293c0.391-0.391 0.391-1.024 0-1.414s-1.024-0.391-1.414 0l-5 5c-0.391 0.391-0.391 1.024 0 1.414l5 5c0.391 0.391 1.024 0.391 1.414 0s0.391-1.024 0-1.414z"></path>
</symbol>
<symbol id="icon-delete" viewBox="0 0 32 32">
<path d="M6.013 16.013l-2.013-2.013v-8c0-1.112 0.895-2 2-2h8l13.381 13.381c0.783 0.783 0.787 2.051 0.008 2.831l-7.177 7.177c-0.778 0.778-2.047 0.776-2.831-0.008l-2.394-2.394c0.642-1.008 1.013-2.204 1.013-3.487 0-3.59-2.91-6.5-6.5-6.5-1.283 0-2.479 0.372-3.487 1.013v0 0zM9.5 11c0.828 0 1.5-0.672 1.5-1.5s-0.672-1.5-1.5-1.5c-0.828 0-1.5 0.672-1.5 1.5s0.672 1.5 1.5 1.5v0zM9.5 27v0c-3.038 0-5.5-2.462-5.5-5.5s2.462-5.5 5.5-5.5c3.038 0 5.5 2.462 5.5 5.5s-2.462 5.5-5.5 5.5zM6 21v1h7v-1h-7z"></path>
</symbol>
<symbol id="icon-tag-remove" viewBox="0 0 32 32">
<path d="M6.741 16.741v0 0c-1.639 0.952-2.741 2.727-2.741 4.759 0 3.038 2.462 5.5 5.5 5.5 2.032 0 3.807-1.102 4.759-2.741l3.122 3.122c0.784 0.784 2.052 0.786 2.831 0.008l7.177-7.177c0.78-0.78 0.776-2.047-0.008-2.831l-13.381-13.381h-8c-1.104 0-2 0.887-2 2v8l2.741 2.741zM7.764 16.279l-2.764-2.779v-7.492c0-0.551 0.452-1.008 1.008-1.008h7.492l13.162 13.054c0.391 0.388 0.393 1.017 0.006 1.407l-7.164 7.213c-0.386 0.389-1.016 0.389-1.404-0.002l-3.389-3.407c0.187-0.554 0.289-1.147 0.289-1.764 0-3.038-2.462-5.5-5.5-5.5-0.606 0-1.19 0.098-1.736 0.279v0 0zM9.5 12v0c-1.381 0-2.5-1.119-2.5-2.5s1.119-2.5 2.5-2.5c1.381 0 2.5 1.119 2.5 2.5s-1.119 2.5-2.5 2.5zM9.5 11c0.828 0 1.5-0.672 1.5-1.5s-0.672-1.5-1.5-1.5c-0.828 0-1.5 0.672-1.5 1.5s0.672 1.5 1.5 1.5v0zM9.5 26v0c-2.485 0-4.5-2.015-4.5-4.5s2.015-4.5 4.5-4.5c2.485 0 4.5 2.015 4.5 4.5s-2.015 4.5-4.5 4.5zM6 21v1h7v-1h-7z"></path>
</symbol>
<symbol id="icon-shopping-bag" viewBox="0 0 28 28">
<path d="M27.453 22l0.547 4.891c0.031 0.281-0.063 0.562-0.25 0.781-0.187 0.203-0.469 0.328-0.75 0.328h-26c-0.281 0-0.562-0.125-0.75-0.328-0.187-0.219-0.281-0.5-0.25-0.781l0.547-4.891h26.906zM26 8.891l1.344 12.109h-26.688l1.344-12.109c0.063-0.5 0.484-0.891 1-0.891h4v2c0 1.109 0.891 2 2 2s2-0.891 2-2v-2h6v2c0 1.109 0.891 2 2 2s2-0.891 2-2v-2h4c0.516 0 0.938 0.391 1 0.891zM20 6v4c0 0.547-0.453 1-1 1s-1-0.453-1-1v-4c0-2.203-1.797-4-4-4s-4 1.797-4 4v4c0 0.547-0.453 1-1 1s-1-0.453-1-1v-4c0-3.313 2.688-6 6-6s6 2.688 6 6z"></path>
</symbol>
<symbol id="icon-heart" viewBox="0 0 32 32">
  <path stroke-linejoin="round" stroke-linecap="round" stroke-miterlimit="4" stroke-width="2.6667" d="M27.787 6.147c-0.681-0.681-1.49-1.222-2.38-1.591s-1.844-0.559-2.807-0.559c-0.963 0-1.917 0.19-2.807 0.559s-1.698 0.909-2.379 1.591l-1.413 1.413-1.413-1.413c-1.376-1.376-3.241-2.148-5.187-2.148s-3.811 0.773-5.187 2.148c-1.376 1.376-2.148 3.241-2.148 5.187s0.773 3.811 2.148 5.187l11.787 11.787 11.787-11.787c0.681-0.681 1.222-1.49 1.591-2.38s0.558-1.844 0.558-2.807-0.19-1.917-0.558-2.807c-0.369-0.89-0.909-1.699-1.591-2.38z"></path>
</symbol>
<symbol id="icon-chevron-down" viewBox="0 0 32 32">
<path fill="none" stroke="#fff" style="stroke: var(--color2, #fff)" stroke-linejoin="round" stroke-linecap="round" stroke-miterlimit="4" stroke-width="3.2" d="M8 12l8 8 8-8"></path>
</symbol>
<symbol id="icon-close" viewBox="0 0 24 24" fill="none">
<path stroke-linejoin="round" stroke-linecap="round" stroke-miterlimit="4" stroke-width="1.8" d="M24 8l-16 16"></path>
<path stroke-linejoin="round" stroke-linecap="round" stroke-miterlimit="4" stroke-width="1.8" d="M8 8l16 16"></path>
</symbol>
<symbol id="icon-menu" viewBox="0 0 20 20">
<path d="M16.4 9h-12.8c-0.552 0-0.6 0.447-0.6 1s0.048 1 0.6 1h12.8c0.552 0 0.6-0.447 0.6-1s-0.048-1-0.6-1zM16.4 13h-12.8c-0.552 0-0.6 0.447-0.6 1s0.048 1 0.6 1h12.8c0.552 0 0.6-0.447 0.6-1s-0.048-1-0.6-1zM3.6 7h12.8c0.552 0 0.6-0.447 0.6-1s-0.048-1-0.6-1h-12.8c-0.552 0-0.6 0.447-0.6 1s0.048 1 0.6 1z" stroke-width="0.5"></path>
</symbol>
<symbol id="icon-arrow" viewBox="0 0 32 32">
<path d="M12.586 27.414l-10-10c-0.781-0.781-0.781-2.047 0-2.828l10-10c0.781-0.781 2.047-0.781 2.828 0s0.781 2.047 0 2.828l-6.586 6.586h19.172c1.105 0 2 0.895 2 2s-0.895 2-2 2h-19.172l6.586 6.586c0.39 0.39 0.586 0.902 0.586 1.414s-0.195 1.024-0.586 1.414c-0.781 0.781-2.047 0.781-2.828 0z"></path>
</symbol>
</defs>
</svg>